<?xml version="1.0" encoding="UTF-8"?>
<svg id="Camada_1" data-name="Camada 1" xmlns="http://www.w3.org/2000/svg" xmlns:xlink="http://www.w3.org/1999/xlink" viewBox="0 0 156.61 49.35">
  <defs>
    <style>
      .cls-1 {
        clip-path: url(#clippath);
      }

      .cls-2 {
        fill: none;
      }
    </style>
    <clipPath id="clippath">
      <rect class="cls-2" width="156.61" height="49.35"/>
    </clipPath>
  </defs>
  <g class="cls-1">
    <path d="m17.05,41.13c-8.74,0-12.15-2.98-12.15-10.62v-14.97H0v-7.05h1.8c1.71,0,3.1-1.39,3.1-3.1V0h8.25v8.49h6.63v7.05h-6.63v14.11c0,3.43,2.29,3.9,4.76,3.9.62,0,1.22,0,1.87-.03v7.53c-.98.08-1.7.08-2.73.08"/>
    <path d="m35.88,7.56h-.4c-8,0-11.52,3.17-11.68,10.57h8.11v-.15c0-2.58,1.17-3.83,3.57-3.83,3.04,0,3.44,2.12,3.44,3.96v3.5h-3.83c-8.67,0-12.21,3.21-12.21,11.09,0,5.78,2.57,8.83,7.44,8.83,4.32,0,7.12-2.06,7.95-6.83h.8c-.1,2.53-.14,3.94-.14,5.63v.54h8.25v-21.96c0-8.27-3.06-11.35-11.28-11.35m2.05,25.84c-.68.81-1.67,1.21-2.98,1.21-2.35,0-3.7-1.25-3.7-3.43v-.53c0-2.89,1.64-4.23,5.16-4.23h2.64v2.77c0,1.48-.22,2.66-.67,3.53l-.45.69Z"/>
    <path d="m53.68,17.72l-3.43-9.23h8.18l4.1,12.14h.8l4.1-12.14h8.18l-3.43,9.23c-1.44,3.87-5.13,6.44-9.26,6.44s-7.82-2.57-9.26-6.44"/>
    <path d="m72.2,31.63l3.43,9.23h-8.18l-4.1-12.14h-.8l-4.1,12.14h-8.18l3.42-9.23c1.44-3.87,5.13-6.44,9.26-6.44s7.82,2.57,9.26,6.44"/>
    <path d="m78.71,40.86V8.49h12.08c4.26,0,7.27.97,9.21,2.98,1.93,1.99,2.87,5.08,2.87,9.44s-1,7.53-3.05,9.54c-2.06,2.02-5.25,3-9.76,3h-3.1v7.43h-8.25Zm8.25-14.61h2.57c3.24,0,4.56-1.51,4.56-5.22s-1.32-5.03-4.56-5.03h-2.57v10.25Z"/>
    <path d="m117.94,7.56h-.4c-8,0-11.52,3.17-11.68,10.57h8.11v-.15c0-2.58,1.17-3.83,3.57-3.83,3.04,0,3.44,2.12,3.44,3.96v3.5h-3.83c-8.67,0-12.21,3.21-12.21,11.09,0,5.78,2.57,8.83,7.44,8.83,4.32,0,7.12-2.06,7.95-6.83h.8c-.1,2.53-.14,3.94-.14,5.63v.54h8.25v-21.96c0-8.27-3.06-11.35-11.28-11.35m2.05,25.84c-.68.81-1.67,1.21-2.98,1.21-2.35,0-3.7-1.25-3.7-3.43v-.53c0-2.89,1.64-4.23,5.16-4.23h2.64v2.77c0,1.48-.22,2.66-.67,3.53l-.45.69Z"/>
    <path d="m156.61,8.49h-8.18l-4.1,22.59h-.8l-4.1-22.59h-8.18l4.62,20.76c.7,3.13,3.47,5.36,6.68,5.36l-.78,3.26c-.82,3.43-3.22,3.9-5.69,3.9-.62,0-1.22,0-1.86-.03l-1.8,7.53c.96.09,1.68.09,2.71.09,8.74,0,12.86-2.98,14.68-10.62l6.8-30.24Z"/>
  </g>
</svg>